HIERARCHY
ROOT hip
{
  OFFSET 0 0 0
  CHANNELS 6 Xposition Yposition Zposition Zrotation Yrotation Xrotation
  JOINT abdomen
  {
    OFFSET 0 20.6881 -0.73152
    CHANNELS 3 Zrotation Xrotation Yrotation
    JOINT chest
    {
      OFFSET 0 11.7043 -0.48768
      CHANNELS 3 Zrotation Xrotation Yrotation
      JOINT neck
      {
        OFFSET 0 22.1894 -2.19456
        CHANNELS 3 Zrotation Xrotation Yrotation
        JOINT head
        {
          OFFSET -0.24384 7.07133 1.2192
          CHANNELS 3 Zrotation Xrotation Yrotation
          JOINT leftEye
          {
            OFFSET 4.14528 8.04674 8.04672
            CHANNELS 3 Zrotation Xrotation Yrotation
            End Site
            {
              OFFSET 1 0 0
            }
          }
          JOINT rightEye
          {
            OFFSET -3.6576 8.04674 8.04672
            CHANNELS 3 Zrotation Xrotation Yrotation
            End Site
            {
              OFFSET 1 0 0
            }
          }
        }
      }
      JOINT rCollar
      {
        OFFSET -2.68224 19.2634 -4.8768
        CHANNELS 3 Zrotation Xrotation Yrotation
        JOINT rShldr
        {
          OFFSET -8.77824 -1.95073 1.46304
          CHANNELS 3 Zrotation Xrotation Yrotation
          JOINT rForeArm
          {
            OFFSET -28.1742 -1.7115 0.48768
            CHANNELS 3 Zrotation Xrotation Yrotation
            JOINT rHand
            {
              OFFSET -22.5879 0.773209 7.07136
              CHANNELS 3 Zrotation Xrotation Yrotation
              JOINT rThumb1
              {
                OFFSET -1.2192 -0.487915 3.41376
                CHANNELS 3 Zrotation Xrotation Yrotation
                JOINT rThumb2
                {
                  OFFSET -3.37035 -0.52449 3.41376
                  CHANNELS 3 Zrotation Xrotation Yrotation
                  End Site
                  {
                    OFFSET -1.78271 -1.18214 1.43049
                  }
                }
              }
              JOINT rIndex1
              {
                OFFSET -7.75947 0.938293 5.60832
                CHANNELS 3 Zrotation Xrotation Yrotation
                JOINT rIndex2
                {
                  OFFSET -2.54057 -0.884171 1.56538
                  CHANNELS 3 Zrotation Xrotation Yrotation
                  End Site
                  {
                    OFFSET -1.62519 -0.234802 1.16502
                  }
                }
              }
              JOINT rMid1
              {
                OFFSET -8.24714 1.18213 3.41376
                CHANNELS 3 Zrotation Xrotation Yrotation
                JOINT rMid2
                {
                  OFFSET -3.10165 -0.590103 1.0647
                  CHANNELS 3 Zrotation Xrotation Yrotation
                  End Site
                  {
                    OFFSET -2.48547 -0.328903 0.83742
                  }
                }
              }
              JOINT rRing1
              {
                OFFSET -8.82822 0.546677 1.51678
                CHANNELS 3 Zrotation Xrotation Yrotation
                JOINT rRing2
                {
                  OFFSET -2.60934 -0.819778 -0.0198488
                  CHANNELS 3 Zrotation Xrotation Yrotation
                  End Site
                  {
                    OFFSET -2.33842 -0.294052 0.168128
                  }
                }
              }
              JOINT rPinky1
              {
                OFFSET -8.27202 -0.0477905 -0.4584
                CHANNELS 3 Zrotation Xrotation Yrotation
                JOINT rPinky2
                {
                  OFFSET -1.82734 -0.647385 -0.700984
                  CHANNELS 3 Zrotation Xrotation Yrotation
                  End Site
                  {
                    OFFSET -1.69225 -0.51767 -0.607171
                  }
                }
              }
            }
          }
        }
      }
      JOINT lCollar
      {
        OFFSET 2.68224 19.2634 -4.8768
        CHANNELS 3 Zrotation Xrotation Yrotation
        JOINT lShldr
        {
          OFFSET 8.77824 -1.95073 1.46304
          CHANNELS 3 Zrotation Xrotation Yrotation
          JOINT lForeArm
          {
            OFFSET 28.1742 -1.7115 0.48768
            CHANNELS 3 Zrotation Xrotation Yrotation
            JOINT lHand
            {
              OFFSET 22.5879 0.773209 7.07136
              CHANNELS 3 Zrotation Xrotation Yrotation
              JOINT lThumb1
              {
                OFFSET 1.2192 -0.487915 3.41376
                CHANNELS 3 Zrotation Xrotation Yrotation
                JOINT lThumb2
                {
                  OFFSET 3.37035 -0.52449 3.41376
                  CHANNELS 3 Zrotation Xrotation Yrotation
                  End Site
                  {
                    OFFSET 1.78271 -1.18214 1.43049
                  }
                }
              }
              JOINT lIndex1
              {
                OFFSET 7.75947 0.938293 5.60832
                CHANNELS 3 Zrotation Xrotation Yrotation
                JOINT lIndex2
                {
                  OFFSET 2.54057 -0.884171 1.56538
                  CHANNELS 3 Zrotation Xrotation Yrotation
                  End Site
                  {
                    OFFSET 1.62519 -0.234802 1.16502
                  }
                }
              }
              JOINT lMid1
              {
                OFFSET 8.24714 1.18213 3.41376
                CHANNELS 3 Zrotation Xrotation Yrotation
                JOINT lMid2
                {
                  OFFSET 3.10165 -0.590103 1.0647
                  CHANNELS 3 Zrotation Xrotation Yrotation
                  End Site
                  {
                    OFFSET 2.48547 -0.328903 0.83742
                  }
                }
              }
              JOINT lRing1
              {
                OFFSET 8.82822 0.546677 1.51678
                CHANNELS 3 Zrotation Xrotation Yrotation
                JOINT lRing2
                {
                  OFFSET 2.60934 -0.819778 -0.0198488
                  CHANNELS 3 Zrotation Xrotation Yrotation
                  End Site
                  {
                    OFFSET 2.33842 -0.294052 0.168128
                  }
                }
              }
              JOINT lPinky1
              {
                OFFSET 8.27202 -0.0477905 -0.4584
                CHANNELS 3 Zrotation Xrotation Yrotation
                JOINT lPinky2
                {
                  OFFSET 1.82734 -0.647385 -0.700984
                  CHANNELS 3 Zrotation Xrotation Yrotation
                  End Site
                  {
                    OFFSET 1.69225 -0.51767 -0.607171
                  }
                }
              }
            }
          }
        }
      }
    }
  }
  JOINT rButtock
  {
    OFFSET -8.77824 4.35084 1.2192
    CHANNELS 3 Zrotation Xrotation Yrotation
    JOINT rThigh
    {
      OFFSET 0 -1.70687 -2.19456
      CHANNELS 3 Zrotation Xrotation Yrotation
      JOINT rShin
      {
        OFFSET 0 -36.8199 0.73152
        CHANNELS 3 Zrotation Xrotation Yrotation
        JOINT rFoot
        {
          OFFSET 0.73152 -45.1104 -5.12064
          CHANNELS 3 Zrotation Xrotation Yrotation
          End Site
          {
            OFFSET -1.1221 -3.69964 12.103
          }
        }
      }
    }
  }
  JOINT lButtock
  {
    OFFSET 8.77824 4.35084 1.2192
    CHANNELS 3 Zrotation Xrotation Yrotation
    JOINT lThigh
    {
      OFFSET 0 -1.70687 -2.19456
      CHANNELS 3 Zrotation Xrotation Yrotation
      JOINT lShin
      {
        OFFSET 0 -36.8199 0.73152
        CHANNELS 3 Zrotation Xrotation Yrotation
        JOINT lFoot
        {
          OFFSET -0.73152 -45.1104 -5.12064
          CHANNELS 3 Zrotation Xrotation Yrotation
          End Site
          {
            OFFSET 1.1221 -3.69964 12.103
          }
        }
      }
    }
  }
}
MOTION
Frames:	4
Frame Time:	0.00833333
-1.59941 84.3317 -0.76981 -7.4718 8.809 -0.885 9.13978 3.77859 5.65867 -0.474247 -2.99622 1.6743 4.40047 1.56562 -0.853637 -7.9868 1.03716 -2.62615 -0.0 0.0 0.0 -0.0 0.0 0.0 1.85866e-14 -4.15357e-14 -4.76176e-13 78.4655 18.8838 -2.3294 -16.2205 -8.89374 30.1396 -0.0915342 -8.59694 -1.21747 2.51323e-09 -4.99569e-09 -2.08386e-09 4.36392e-09 -8.67587e-09 -3.59756e-09 2.51324e-09 -4.99569e-09 -2.08387e-09 7.73091 5.47488 0.417314 2.51323e-09 -4.99569e-09 -2.08386e-09 2.90554 0.965183 0.102902 2.51323e-09 -4.9957e-09 -2.08386e-09 10.2786 0.731801 0.0259123 2.51322e-09 -4.99569e-09 -2.08386e-09 2.22167 -0.733487 -0.20892 1.85407e-14 -4.15322e-14 -4.76338e-13 -83.2895 29.8256 12.8285 17.6719 -10.3382 -33.2882 0.272728 -14.7044 2.11364 1.03542e-09 2.95148e-09 -1.90222e-09 1.816e-09 5.13459e-09 -3.28405e-09 1.03542e-09 2.95148e-09 -1.90222e-09 -7.73091 5.47488 -0.417314 1.03542e-09 2.95148e-09 -1.90223e-09 -2.90554 0.965183 -0.102902 1.03542e-09 2.95148e-09 -1.90223e-09 -10.2786 0.731801 -0.0259123 1.03542e-09 2.95148e-09 -1.90224e-09 -2.22167 -0.733487 0.20892 -2.03217e-16 0.0 -3.88251e-19 14.6426 1.87301 -5.56021 -0.0227641 13.6906 0.302464 -3.34392 -6.0128 -17.2064 2.03217e-16 0.0 3.88251e-19 12.8223 -34.6895 1.4366 0.241171 33.7462 -0.441586 1.76278 -2.32415 9.01352
-1.5982 84.3576 -0.542657 -7.565 8.8825 -0.9228 9.1901 3.76771 5.76157 -0.487924 -2.99008 1.70202 4.4049 1.59126 -0.891898 -7.97798 1.02253 -2.70061 -0.0 0.0 0.0 -0.0 0.0 0.0 -1.24468e-14 -7.00848e-14 -4.97897e-13 78.4677 18.4775 -2.18293 -16.2116 -8.88537 30.1207 -0.0905772 -8.55294 -1.21114 2.41952e-09 -5.14808e-09 -1.86114e-09 4.19994e-09 -8.93667e-09 -3.21272e-09 2.41953e-09 -5.14808e-09 -1.86117e-09 7.73091 5.47488 0.417314 2.41952e-09 -5.14808e-09 -1.86115e-09 2.90554 0.965183 0.102902 2.41952e-09 -5.14808e-09 -1.86115e-09 10.2786 0.731801 0.0259123 2.41952e-09 -5.14808e-09 -1.86115e-09 2.22167 -0.733487 -0.20892 -1.255e-14 -7.00814e-14 -4.98055e-13 -83.3237 29.7023 12.9795 17.6354 -10.2999 -33.2071 0.269542 -14.6204 2.10102 1.03176e-09 2.79407e-09 -2.00368e-09 1.80994e-09 4.86212e-09 -3.46022e-09 1.03176e-09 2.79407e-09 -2.00368e-09 -7.73091 5.47488 -0.417314 1.03176e-09 2.79407e-09 -2.0037e-09 -2.90554 0.965183 -0.102902 1.03175e-09 2.79407e-09 -2.00369e-09 -10.2786 0.731801 -0.0259123 1.03176e-09 2.79407e-09 -2.0037e-09 -2.22167 -0.733487 0.20892 -2.03217e-16 0.0 -3.88251e-19 14.767 2.2541 -5.55712 -0.0215677 13.2613 0.292656 -3.29588 -5.84874 -17.2295 2.03217e-16 0.0 3.88251e-19 12.8222 -34.8298 1.72924 0.231866 33.059 -0.418769 1.72408 -2.19651 8.8798
-1.60056 84.3827 -0.318794 -7.6676 8.9377 -0.9542 9.2396 3.75097 5.86764 -0.49974 -2.98543 1.73072 4.39408 1.61979 -0.929471 -7.95088 1.00812 -2.76984 -0.0 0.0 0.0 -0.0 0.0 0.0 -4.48154e-15 -9.66117e-14 -4.70623e-13 78.4666 18.0974 -2.03848 -16.2007 -8.87505 30.0974 -0.090213 -8.53627 -1.20874 1.93972e-09 -4.5373e-09 -1.59119e-09 3.36833e-09 -7.8761e-09 -2.74772e-09 1.93973e-09 -4.5373e-09 -1.59121e-09 7.73091 5.47488 0.417314 1.93972e-09 -4.5373e-09 -1.59119e-09 2.90554 0.965183 0.102902 1.93972e-09 -4.5373e-09 -1.59119e-09 10.2786 0.731801 0.0259123 1.93972e-09 -4.5373e-09 -1.59119e-09 2.22167 -0.733487 -0.20892 -4.61317e-15 -9.66086e-14 -4.70772e-13 -83.3643 29.575 13.1362 17.5994 -10.2623 -33.1275 0.267187 -14.5577 2.09161 7.35696e-10 2.34175e-09 -1.87123e-09 1.29627e-09 4.07752e-09 -3.23402e-09 7.35693e-10 2.34175e-09 -1.87123e-09 -7.73091 5.47488 -0.417314 7.35697e-10 2.34175e-09 -1.87124e-09 -2.90554 0.965183 -0.102902 7.3569e-10 2.34175e-09 -1.87123e-09 -10.2786 0.731801 -0.0259123 7.35696e-10 2.34175e-09 -1.87124e-09 -2.22167 -0.733487 0.20892 -2.03217e-16 0.0 -3.88251e-19 14.8877 2.64687 -5.5508 -0.0201969 12.8074 0.282555 -3.24247 -5.67824 -17.2382 2.03217e-16 0.0 3.88251e-19 12.8141 -34.9544 1.99337 0.223105 32.3882 -0.397757 1.70032 -2.11398 8.80103
-1.5996 84.407 -0.0947452 -7.7595 8.9862 -0.9789 9.29118 3.72901 5.97765 -0.509145 -2.98419 1.76068 4.35595 1.65447 -0.967635 -7.89251 0.99171 -2.83338 -0.0 0.0 0.0 -0.0 0.0 0.0 7.49324e-14 -1.24981e-13 -3.60419e-13 78.4593 17.7495 -1.89658 -16.1872 -8.86236 30.0689 -0.0907885 -8.56348 -1.21265 7.51256e-10 -2.57722e-09 -1.23726e-09 1.31135e-09 -4.47937e-09 -2.14042e-09 7.51269e-10 -2.57722e-09 -1.23729e-09 7.73091 5.47488 0.417314 7.51258e-10 -2.57722e-09 -1.23727e-09 2.90554 0.965183 0.102902 7.5126e-10 -2.57722e-09 -1.23727e-09 10.2786 0.731801 0.0259123 7.51257e-10 -2.57721e-09 -1.23727e-09 2.22167 -0.733487 -0.20892 7.48152e-14 -1.24978e-13 -3.60543e-13 -83.4149 29.4392 13.3019 17.5638 -10.2252 -33.0488 0.265885 -14.523 2.0864 -9.87195e-11 1.35005e-09 -1.33611e-09 -1.51657e-10 2.35648e-09 -2.31561e-09 -9.87225e-11 1.35005e-09 -1.33611e-09 -7.73091 5.47488 -0.417314 -9.87183e-11 1.35005e-09 -1.33612e-09 -2.90554 0.965183 -0.102902 -9.87261e-11 1.35005e-09 -1.33612e-09 -10.2786 0.731801 -0.0259123 -9.8719e-11 1.35005e-09 -1.33613e-09 -2.22167 -0.733487 0.20892 -2.03217e-16 0.0 -3.88251e-19 15.0079 3.05337 -5.53537 -0.0186465 12.3265 0.27212 -3.18383 -5.49974 -17.2355 2.03217e-16 0.0 3.88251e-19 12.8045 -35.0644 2.24737 0.214835 31.7401 -0.378749 1.6941 -2.09072 8.78042
